0
SECTION
2
HEADER
9
$ACADVER
1
AC1009
9
$INSBASE
10
0.0000
20
0.0000
30
0.0000
9
$EXTMIN
10
0.0000
20
0.0000
30
0.0000
9
$EXTMAX
10
9144.0000
20
14240.2560
30
0.0000
9
$INSUNITS
70
4
9
$MEASUREMENT
70
1
0
ENDSEC
0
SECTION
2
TABLES
0
TABLE
2
LTYPE
70
1
0
LTYPE
2
CONTINUOUS
70
64
3
Solid line
72
65
73
0
40
0.0000
0
ENDTAB
0
TABLE
2
LAYER
70
6
0
LAYER
2
WALLS
70
0
62
7
6
CONTINUOUS
0
LAYER
2
DOORS
70
0
62
3
6
CONTINUOUS
0
LAYER
2
WINDOWS
70
0
62
5
6
CONTINUOUS
0
LAYER
2
ROOMS
70
0
62
8
6
CONTINUOUS
0
LAYER
2
TEXT
70
0
62
7
6
CONTINUOUS
0
LAYER
2
DIMS
70
0
62
6
6
CONTINUOUS
0
ENDTAB
0
ENDSEC
0
SECTION
2
ENTITIES
0
LINE
8
WALLS
10
100.0000
20
13316.1280
30
0.0000
11
100.0000
21
924.1280
31
0.0000
0
LINE
8
WALLS
10
-100.0000
20
13316.1280
30
0.0000
11
-100.0000
21
924.1280
31
0.0000
0
LINE
8
WALLS
10
-100.0000
20
13316.1280
30
0.0000
11
100.0000
21
13316.1280
31
0.0000
0
LINE
8
WALLS
10
-100.0000
20
924.1280
30
0.0000
11
100.0000
21
924.1280
31
0.0000
0
LINE
8
WALLS
10
5238.6000
20
13216.1280
30
0.0000
11
5238.6000
21
10115.9280
31
0.0000
0
LINE
8
WALLS
10
5124.6000
20
13216.1280
30
0.0000
11
5124.6000
21
10115.9280
31
0.0000
0
LINE
8
WALLS
10
5124.6000
20
13216.1280
30
0.0000
11
5238.6000
21
13216.1280
31
0.0000
0
LINE
8
WALLS
10
5124.6000
20
10115.9280
30
0.0000
11
5238.6000
21
10115.9280
31
0.0000
0
LINE
8
WALLS
10
5238.6000
20
9305.9280
30
0.0000
11
5238.6000
21
1024.1280
31
0.0000
0
LINE
8
WALLS
10
5124.6000
20
9305.9280
30
0.0000
11
5124.6000
21
1024.1280
31
0.0000
0
LINE
8
WALLS
10
5124.6000
20
9305.9280
30
0.0000
11
5238.6000
21
9305.9280
31
0.0000
0
LINE
8
WALLS
10
5124.6000
20
1024.1280
30
0.0000
11
5238.6000
21
1024.1280
31
0.0000
0
LINE
8
WALLS
10
9244.0000
20
13316.1280
30
0.0000
11
9244.0000
21
924.1280
31
0.0000
0
LINE
8
WALLS
10
9044.0000
20
13316.1280
30
0.0000
11
9044.0000
21
924.1280
31
0.0000
0
LINE
8
WALLS
10
9044.0000
20
13316.1280
30
0.0000
11
9244.0000
21
13316.1280
31
0.0000
0
LINE
8
WALLS
10
9044.0000
20
924.1280
30
0.0000
11
9244.0000
21
924.1280
31
0.0000
0
LINE
8
WALLS
10
-100.0000
20
13116.1280
30
0.0000
11
1980.8000
21
13116.1280
31
0.0000
0
LINE
8
WALLS
10
-100.0000
20
13316.1280
30
0.0000
11
1980.8000
21
13316.1280
31
0.0000
0
LINE
8
WALLS
10
-100.0000
20
13316.1280
30
0.0000
11
-100.0000
21
13116.1280
31
0.0000
0
LINE
8
WALLS
10
1980.8000
20
13316.1280
30
0.0000
11
1980.8000
21
13116.1280
31
0.0000
0
LINE
8
WALLS
10
3200.8000
20
13116.1280
30
0.0000
11
9244.0000
21
13116.1280
31
0.0000
0
LINE
8
WALLS
10
3200.8000
20
13316.1280
30
0.0000
11
9244.0000
21
13316.1280
31
0.0000
0
LINE
8
WALLS
10
3200.8000
20
13316.1280
30
0.0000
11
3200.8000
21
13116.1280
31
0.0000
0
LINE
8
WALLS
10
9244.0000
20
13316.1280
30
0.0000
11
9244.0000
21
13116.1280
31
0.0000
0
LINE
8
WALLS
10
0.0000
20
6148.7280
30
0.0000
11
5181.6000
21
6148.7280
31
0.0000
0
LINE
8
WALLS
10
0.0000
20
6262.7280
30
0.0000
11
5181.6000
21
6262.7280
31
0.0000
0
LINE
8
WALLS
10
0.0000
20
6262.7280
30
0.0000
11
0.0000
21
6148.7280
31
0.0000
0
LINE
8
WALLS
10
5181.6000
20
6262.7280
30
0.0000
11
5181.6000
21
6148.7280
31
0.0000
0
LINE
8
WALLS
10
-100.0000
20
924.1280
30
0.0000
11
9244.0000
21
924.1280
31
0.0000
0
LINE
8
WALLS
10
-100.0000
20
1124.1280
30
0.0000
11
9244.0000
21
1124.1280
31
0.0000
0
LINE
8
WALLS
10
-100.0000
20
1124.1280
30
0.0000
11
-100.0000
21
924.1280
31
0.0000
0
LINE
8
WALLS
10
9244.0000
20
1124.1280
30
0.0000
11
9244.0000
21
924.1280
31
0.0000
0
LINE
8
WALLS
10
5181.6000
20
4523.1280
30
0.0000
11
6782.8000
21
4523.1280
31
0.0000
0
LINE
8
WALLS
10
5181.6000
20
4637.1280
30
0.0000
11
6782.8000
21
4637.1280
31
0.0000
0
LINE
8
WALLS
10
5181.6000
20
4637.1280
30
0.0000
11
5181.6000
21
4523.1280
31
0.0000
0
LINE
8
WALLS
10
6782.8000
20
4637.1280
30
0.0000
11
6782.8000
21
4523.1280
31
0.0000
0
LINE
8
WALLS
10
7542.8000
20
4523.1280
30
0.0000
11
9144.0000
21
4523.1280
31
0.0000
0
LINE
8
WALLS
10
7542.8000
20
4637.1280
30
0.0000
11
9144.0000
21
4637.1280
31
0.0000
0
LINE
8
WALLS
10
7542.8000
20
4637.1280
30
0.0000
11
7542.8000
21
4523.1280
31
0.0000
0
LINE
8
WALLS
10
9144.0000
20
4637.1280
30
0.0000
11
9144.0000
21
4523.1280
31
0.0000
0
LINE
8
DOORS
10
5181.6000
20
10115.9280
30
0.0000
11
4371.6000
21
10115.9280
31
0.0000
0
ARC
8
DOORS
10
5181.6000
20
10115.9280
30
0.0000
40
810.0000
50
180.0000
51
270.0000
0
LINE
8
WINDOWS
10
1980.8000
20
13172.1280
30
0.0000
11
3200.8000
21
13172.1280
31
0.0000
0
LINE
8
WINDOWS
10
1980.8000
20
13260.1280
30
0.0000
11
3200.8000
21
13260.1280
31
0.0000
0
LINE
8
DOORS
10
6782.8000
20
4580.1280
30
0.0000
11
6782.8000
21
3820.1280
31
0.0000
0
ARC
8
DOORS
10
6782.8000
20
4580.1280
30
0.0000
40
760.0000
50
270.0000
51
0.0000
0
POLYLINE
8
ROOMS
66
1
10
0.0000
20
0.0000
30
0.0000
70
1
0
VERTEX
8
ROOMS
10
0.0000
20
13216.1280
30
0.0000
0
VERTEX
8
ROOMS
10
5181.6000
20
13216.1280
30
0.0000
0
VERTEX
8
ROOMS
10
5181.6000
20
6205.7280
30
0.0000
0
VERTEX
8
ROOMS
10
0.0000
20
6205.7280
30
0.0000
0
SEQEND
8
ROOMS
0
TEXT
8
TEXT
10
4572.0000
20
7120.1280
30
0.0000
40
170.6880
1
Living Room
72
1
11
4572.0000
21
7120.1280
31
0.0000
0
TEXT
8
TEXT
10
4572.0000
20
6847.0272
30
0.0000
40
128.0160
1
391 sq ft
72
1
11
4572.0000
21
6847.0272
31
0.0000
0
POLYLINE
8
ROOMS
66
1
10
0.0000
20
0.0000
30
0.0000
70
1
0
VERTEX
8
ROOMS
10
0.0000
20
6205.7280
30
0.0000
0
VERTEX
8
ROOMS
10
5181.6000
20
6205.7280
30
0.0000
0
VERTEX
8
ROOMS
10
5181.6000
20
4580.1280
30
0.0000
0
VERTEX
8
ROOMS
10
5181.6000
20
1024.1280
30
0.0000
0
VERTEX
8
ROOMS
10
0.0000
20
1024.1280
30
0.0000
0
SEQEND
8
ROOMS
0
TEXT
8
TEXT
10
2590.8000
20
3614.9280
30
0.0000
40
170.6880
1
Bedroom
72
1
11
2590.8000
21
3614.9280
31
0.0000
0
TEXT
8
TEXT
10
2590.8000
20
3341.8272
30
0.0000
40
128.0160
1
289 sq ft
72
1
11
2590.8000
21
3341.8272
31
0.0000
0
POLYLINE
8
ROOMS
66
1
10
0.0000
20
0.0000
30
0.0000
70
1
0
VERTEX
8
ROOMS
10
5181.6000
20
13216.1280
30
0.0000
0
VERTEX
8
ROOMS
10
9144.0000
20
13216.1280
30
0.0000
0
VERTEX
8
ROOMS
10
9144.0000
20
4580.1280
30
0.0000
0
VERTEX
8
ROOMS
10
5181.6000
20
4580.1280
30
0.0000
0
VERTEX
8
ROOMS
10
5181.6000
20
6205.7280
30
0.0000
0
SEQEND
8
ROOMS
0
TEXT
8
TEXT
10
7162.8000
20
7120.1280
30
0.0000
40
170.6880
1
Kitchen
72
1
11
7162.8000
21
7120.1280
31
0.0000
0
TEXT
8
TEXT
10
7162.8000
20
6847.0272
30
0.0000
40
128.0160
1
368 sq ft
72
1
11
7162.8000
21
6847.0272
31
0.0000
0
POLYLINE
8
ROOMS
66
1
10
0.0000
20
0.0000
30
0.0000
70
1
0
VERTEX
8
ROOMS
10
5181.6000
20
4580.1280
30
0.0000
0
VERTEX
8
ROOMS
10
9144.0000
20
4580.1280
30
0.0000
0
VERTEX
8
ROOMS
10
9144.0000
20
1024.1280
30
0.0000
0
VERTEX
8
ROOMS
10
5181.6000
20
1024.1280
30
0.0000
0
SEQEND
8
ROOMS
0
TEXT
8
TEXT
10
7162.8000
20
2802.1280
30
0.0000
40
170.6880
1
Bath
72
1
11
7162.8000
21
2802.1280
31
0.0000
0
TEXT
8
TEXT
10
7162.8000
20
2529.0272
30
0.0000
40
128.0160
1
152 sq ft
72
1
11
7162.8000
21
2529.0272
31
0.0000
0
TEXT
8
DIMS
10
-341.3760
20
7120.1280
30
0.0000
40
136.5504
1
40'-0"
72
1
11
-341.3760
21
7120.1280
31
0.0000
0
TEXT
8
DIMS
10
5027.9808
20
7120.1280
30
0.0000
40
136.5504
1
40'-0"
72
1
11
5027.9808
21
7120.1280
31
0.0000
0
TEXT
8
DIMS
10
9485.3760
20
7120.1280
30
0.0000
40
136.5504
1
40'-0"
72
1
11
9485.3760
21
7120.1280
31
0.0000
0
TEXT
8
DIMS
10
4572.0000
20
13557.5040
30
0.0000
40
136.5504
1
30'-0"
72
1
11
4572.0000
21
13557.5040
31
0.0000
0
TEXT
8
DIMS
10
2590.8000
20
6359.3472
30
0.0000
40
136.5504
1
17'-0"
72
1
11
2590.8000
21
6359.3472
31
0.0000
0
TEXT
8
DIMS
10
4572.0000
20
682.7520
30
0.0000
40
136.5504
1
30'-0"
72
1
11
4572.0000
21
682.7520
31
0.0000
0
TEXT
8
DIMS
10
7162.8000
20
4733.7472
30
0.0000
40
136.5504
1
13'-0"
72
1
11
7162.8000
21
4733.7472
31
0.0000
0
LINE
8
DIMS
10
0.0000
20
341.3760
30
0.0000
11
1219.2000
21
341.3760
31
0.0000
0
LINE
8
DIMS
10
0.0000
20
409.6512
30
0.0000
11
0.0000
21
273.1008
31
0.0000
0
LINE
8
DIMS
10
1219.2000
20
409.6512
30
0.0000
11
1219.2000
21
273.1008
31
0.0000
0
TEXT
8
DIMS
10
0.0000
20
0.0000
30
0.0000
40
136.5504
1
Golden Fixture — scale bar 4'-0" — drawing units: millimetres (imperial display)
0
ENDSEC
0
EOF
